<?xml version="1.0" encoding="utf-8"?>
<!-- Generator: Adobe Illustrator 16.0.0, SVG Export Plug-In . SVG Version: 6.00 Build 0)  -->
<!DOCTYPE svg PUBLIC "-//W3C//DTD SVG 1.1//EN" "http://www.w3.org/Graphics/SVG/1.1/DTD/svg11.dtd">
<svg version="1.1" id="Layer_1" xmlns="http://www.w3.org/2000/svg" xmlns:xlink="http://www.w3.org/1999/xlink" x="0px" y="0px"
	 width="100px" height="100px" viewBox="0 0 100 100" enable-background="new 0 0 100 100" xml:space="preserve">
<pattern  width="144.13" height="138.362" patternUnits="userSpaceOnUse" id="Alyssa" viewBox="99.963 -216.829 144.13 138.362" overflow="visible">
	<g>
		<polygon fill="none" points="99.963,-216.829 244.093,-216.829 244.093,-78.466 99.963,-78.466 		"/>
		<g>
			<path fill="#C6DD7F" d="M311.037-58.307c-11.76-1.384-19.369,0.346-22.654,3.113c-3.02,2.543-4.955,5.405-2.248,11.932
				c2.939,7.091,1.533,14.732-5.535,15.91c-6.225,1.037-10.895-4.842-11.24-12.278c-0.24-5.183-1.902-8.301-5.533-7.608
				c-3.633,0.691-4.629,5.9-3.633,11.759c1.385,8.128,5.535,11.76,6.227,20.233c0.494,6.055-2.939,13.662-12.451,15.045
				c-9.301,1.354-15.91-4.322-16.602-10.549c-0.732-6.588,3.631-10.895,3.111-17.639c-0.518-6.745-4.012-10.172-5.879-17.294
				c-2.768-10.549,1.211-19.022,7.781-22.654c14.746-8.148,22.832,3.642,35.971,1.556c10.896-1.729,23.348-18.157,33.031-19.541
				c8.227-1.175,13.834,4.669,15.045,14.008S321.687-57.053,311.037-58.307z M268.841-57.789c0-2.292-1.859-4.15-4.15-4.15
				c-2.293,0-4.15,1.858-4.15,4.15s1.857,4.15,4.15,4.15C266.982-53.638,268.841-55.497,268.841-57.789z M318.3-73.179
				c0-0.955-0.775-1.729-1.73-1.729s-1.729,0.774-1.729,1.729s0.773,1.729,1.729,1.729S318.3-72.224,318.3-73.179z"/>
		</g>
		<g>
			<path fill="#E9DDB7" d="M148.795-77.495c0,7.166,4.588,13.813-1,16.333c-8.5,3.833-28-14.333-28-36.167c0-12,8.667-19,17.833-19
				c12.334,0,18,8.167,18,17.5C155.629-89.497,148.795-85.689,148.795-77.495z M143.387-82.864c0-1.146-0.93-2.075-2.074-2.075
				c-1.146,0-2.076,0.929-2.076,2.075c0,1.146,0.93,2.075,2.076,2.075C142.458-80.789,143.387-81.718,143.387-82.864z"/>
			<path fill="#A6D0E4" d="M223.495-54c-7.871,2.737-19.439-15.297-17.67-27.019c1.24-8.228,7.123-13.189,13.088-14.217
				c7.525-1.297,12.898,2.601,13.299,7.243c0.547,6.309-3.633,7.518-4.223,14.958C227.426-65.9,231.68-56.849,223.495-54z
				 M219.706-81.508c0-1.434-1.162-2.595-2.594-2.595c-1.434,0-2.594,1.161-2.594,2.595c0,1.433,1.16,2.594,2.594,2.594
				C218.543-78.915,219.706-80.076,219.706-81.508z"/>
			<path fill="#E9DDB7" d="M119.351-76.465c0,1.433-1.162,2.594-2.594,2.594c-1.434,0-2.594-1.161-2.594-2.594
				s1.16-2.594,2.594-2.594C118.188-79.059,119.351-77.898,119.351-76.465z"/>
			<path fill="#A6D0E4" d="M184.573-84.189c0.74,8.101,12.672,7.017,17.904,14.214c10.52,14.475-1.219,46.365-21.631,46.365
				c-11.74,0-24.217-9.719-24.217-29.219c0-15.834,10.166-21.5,8.25-42.166c-1.006-10.834-12.5-20.343-12.5-34.75
				c0-5.922,3.586-13.447,11.553-13.447c7.055,0,10.822,5.953,10.822,12.9c0,6.798-5.381,15.74,1.375,19.047
				c5.242,2.565,13.211-4.77,19.5-6.75c5.191-1.636,12.389,0.225,14.75,8.5c2.531,8.876-3.252,14.745-11.592,16.693
				C192.469-91.325,183.985-90.63,184.573-84.189z M168.588-114.748c0-1.815-1.471-3.287-3.285-3.287s-3.287,1.472-3.287,3.287
				c0,1.814,1.473,3.285,3.287,3.285S168.588-112.933,168.588-114.748z M194.573-105.052c1.285,0,2.328-1.043,2.328-2.33
				c0-1.286-1.043-2.328-2.328-2.328c-1.287,0-2.33,1.042-2.33,2.328C192.243-106.095,193.286-105.052,194.573-105.052z
				 M174.588-45.38c0-1.815-1.471-3.287-3.287-3.287c-1.814,0-3.285,1.472-3.285,3.287c0,1.814,1.471,3.285,3.285,3.285
				C173.118-42.095,174.588-43.566,174.588-45.38z"/>
			<path fill="#C6DD7F" d="M166.907-58.307c-11.76-1.384-19.369,0.346-22.654,3.113c-3.02,2.543-4.955,5.405-2.248,11.932
				c2.939,7.091,1.533,14.732-5.535,15.91c-6.225,1.037-10.895-4.842-11.24-12.278c-0.24-5.183-1.902-8.301-5.533-7.608
				c-3.633,0.691-4.629,5.9-3.633,11.759c1.385,8.128,5.535,11.76,6.227,20.233c0.494,6.055-2.939,13.662-12.451,15.045
				c-9.301,1.354-15.91-4.322-16.602-10.549c-0.732-6.588,3.631-10.895,3.111-17.639c-0.518-6.745-4.012-10.172-5.879-17.294
				c-2.768-10.549,1.211-19.022,7.781-22.654c14.746-8.148,22.832,3.642,35.97,1.556c10.896-1.729,23.348-18.157,33.031-19.541
				c8.227-1.175,13.834,4.669,15.045,14.008S177.557-57.053,166.907-58.307z M124.711-57.789c0-2.292-1.859-4.15-4.15-4.15
				c-2.293,0-4.15,1.858-4.15,4.15s1.857,4.15,4.15,4.15C122.853-53.638,124.711-55.497,124.711-57.789z M174.17-73.179
				c0-0.955-0.775-1.729-1.73-1.729s-1.729,0.774-1.729,1.729s0.773,1.729,1.729,1.729S174.17-72.224,174.17-73.179z"/>
		</g>
		<g>
			<path fill="#A6D0E4" d="M290.285-104.841c0,6.227-4.15,10.721-8.646,11.586s-8.318-1.281-12.971,1.211
				c-4.842,2.594-7.09,11.068-16.775,11.068c-7.955,0-15.217-7.955-15.217-18.85c0-20.234,13.143-29.227,25.594-29.227
				C278.871-129.052,290.285-116.427,290.285-104.841z M270.57-119.195c0-2.1-1.703-3.803-3.805-3.803s-3.805,1.703-3.805,3.803
				c0,2.102,1.703,3.805,3.805,3.805S270.57-117.093,270.57-119.195z"/>
			<path fill="#C6DD7F" d="M311.037-196.669c-11.76-1.384-19.369,0.346-22.654,3.113c-3.02,2.543-4.955,5.405-2.248,11.932
				c2.939,7.091,1.533,14.732-5.535,15.91c-6.225,1.037-10.895-4.842-11.24-12.278c-0.24-5.183-1.902-8.301-5.533-7.608
				c-3.633,0.691-4.629,5.9-3.633,11.759c1.385,8.128,5.535,11.76,6.227,20.233c0.494,6.055-2.939,13.662-12.451,15.045
				c-9.301,1.354-15.91-4.322-16.602-10.549c-0.732-6.588,3.631-10.895,3.111-17.639c-0.518-6.745-4.012-10.172-5.879-17.294
				c-2.768-10.549,1.211-19.022,7.781-22.654c14.746-8.148,22.832,3.642,35.971,1.556c10.896-1.729,23.348-18.157,33.031-19.541
				c8.227-1.175,13.834,4.669,15.045,14.008S321.687-195.416,311.037-196.669z M268.841-196.151c0-2.292-1.859-4.15-4.15-4.15
				c-2.293,0-4.15,1.858-4.15,4.15s1.857,4.15,4.15,4.15C266.982-192,268.841-193.859,268.841-196.151z M318.3-211.542
				c0-0.955-0.775-1.729-1.73-1.729s-1.729,0.774-1.729,1.729s0.773,1.729,1.729,1.729S318.3-210.586,318.3-211.542z"/>
		</g>
		<g>
			<path fill="#A6D0E4" d="M131.795-133.191c-13.957,1.988-21.166-13.332-17.666-20.332c3.666-7.334,12.119-4.168,19.5-4.168
				c9.666,0,16.367-7.568,20.416-2.25C158.295-154.357,149.036-135.646,131.795-133.191z M132.319-150.669
				c0-1.24-1.006-2.248-2.248-2.248c-1.24,0-2.248,1.008-2.248,2.248c0,1.242,1.008,2.248,2.248,2.248
				C131.313-148.421,132.319-149.427,132.319-150.669z"/>
			<path fill="#E9DDB7" d="M148.795-215.857c0,7.166,4.588,13.813-1,16.333c-8.5,3.833-28-14.333-28-36.167c0-12,8.667-19,17.833-19
				c12.334,0,18,8.167,18,17.5C155.629-227.859,148.795-224.051,148.795-215.857z M143.387-221.226c0-1.146-0.93-2.075-2.074-2.075
				c-1.146,0-2.076,0.929-2.076,2.075c0,1.146,0.93,2.075,2.076,2.075C142.458-219.151,143.387-220.081,143.387-221.226z"/>
			<path fill="#A6D0E4" d="M146.155-104.841c0,6.227-4.15,10.721-8.646,11.586s-8.318-1.281-12.971,1.211
				c-4.841,2.594-7.089,11.068-16.775,11.068c-7.955,0-15.217-7.955-15.217-18.85c0-20.234,13.143-29.227,25.594-29.227
				C134.741-129.052,146.155-116.427,146.155-104.841z M126.44-119.195c0-2.1-1.703-3.803-3.804-3.803
				c-2.102,0-3.805,1.703-3.805,3.803c0,2.102,1.703,3.805,3.805,3.805C124.737-115.39,126.44-117.093,126.44-119.195z"/>
			<path fill="#C6DD7F" d="M145.463-128.533c0,1.336-1.084,2.42-2.422,2.42c-1.336,0-2.42-1.084-2.42-2.42
				c0-1.338,1.084-2.422,2.42-2.422C144.379-130.955,145.463-129.871,145.463-128.533z"/>
			<path fill="#A6D0E4" d="M229.163-147.037c-3.191,4.68,1.039,10.721-1.383,15.217c-2.422,4.498-6.744,5.016-9.857,2.596
				c-3.635-2.828-3.41-6.643-8.301-8.82c-5.529-2.465-17.984,2.248-19.715-7.264c-0.875-4.811,2.375-8.566,7.264-9.684
				c6.053-1.383,9.352-0.18,15.391-3.113c6.053-2.939,11.242-8.993,22.137-12.105c10.406-2.975,16.072,1.557,16.602,5.879
				C252.336-155.857,234.172-154.382,229.163-147.037z M226.915-154.474c0-1.24-1.006-2.248-2.248-2.248
				c-1.24,0-2.248,1.008-2.248,2.248c0,1.242,1.008,2.248,2.248,2.248C225.909-152.226,226.915-153.232,226.915-154.474z"/>
			<path fill="#E9DDB7" d="M256.129-107.857c0,17.166-14.5,25.5-27,22.832c-10.264-2.189-12.834-17.332-16.668-26.166
				c-3.713-8.557-8.832-22.5-20.166-22.5c-11.197,0-12.832,14.5-23.666,14.5c-11,0-24.5-15.666-24.5-39.666
				c0-14.667,9.799-31.455,20.834-30.667c11.666,0.833,4.5,19.667,15.332,19.667c9.5,0,7.857-16.259,9.168-23.334
				c1.666-9,6.832-14.166,18.498-13.166c14.443,1.237,22.334,13.5,18.871,23.344c-4.029,11.451-23.869,17.322-21.537,30.49
				c1.346,7.592,13,11.998,26,16.166C245.825-131.701,256.129-125.025,256.129-107.857z M211.178-183.7
				c0,1.815,1.471,3.286,3.285,3.286s3.287-1.471,3.287-3.286s-1.473-3.286-3.287-3.286S211.178-185.515,211.178-183.7z
				 M164.485-158.796c0-0.955-0.773-1.73-1.729-1.73s-1.73,0.775-1.73,1.73s0.775,1.729,1.73,1.729S164.485-157.841,164.485-158.796
				z M181.952-148.076c0-2.102-1.703-3.805-3.805-3.805c-2.1,0-3.805,1.703-3.805,3.805s1.705,3.805,3.805,3.805
				C180.249-144.271,181.952-145.974,181.952-148.076z M201.84-163.639c0-0.859-0.697-1.556-1.557-1.556s-1.557,0.696-1.557,1.556
				s0.697,1.556,1.557,1.556S201.84-162.78,201.84-163.639z M231.483-108.945c0-1.752-1.42-3.174-3.174-3.174
				c-1.752,0-3.174,1.422-3.174,3.174c0,1.754,1.422,3.174,3.174,3.174C230.063-105.771,231.483-107.191,231.483-108.945z"/>
			<path fill="#A6D0E4" d="M223.495-192.363c-7.871,2.737-19.439-15.297-17.67-27.019c1.24-8.228,7.123-13.189,13.088-14.217
				c7.525-1.297,12.898,2.601,13.299,7.243c0.547,6.309-3.633,7.518-4.223,14.958C227.426-204.262,231.68-195.211,223.495-192.363z
				 M219.706-219.871c0-1.434-1.162-2.595-2.594-2.595c-1.434,0-2.594,1.161-2.594,2.595c0,1.433,1.16,2.594,2.594,2.594
				C218.543-217.277,219.706-218.438,219.706-219.871z"/>
			<path fill="#E9DDB7" d="M119.351-214.828c0,1.433-1.162,2.594-2.594,2.594c-1.434,0-2.594-1.161-2.594-2.594
				s1.16-2.594,2.594-2.594C118.188-217.421,119.351-216.26,119.351-214.828z"/>
			<path fill="#E9DDB7" d="M253.348-128.091c0-8.41-5.078-15.227-11.34-15.227s-11.34,6.816-11.34,15.227
				c0,8.408,5.078,12.441,11.34,12.441S253.348-119.683,253.348-128.091z"/>
			<path fill="#A6D0E4" d="M184.573-222.551c0.74,8.101,12.672,7.017,17.904,14.214c10.52,14.475-1.219,46.365-21.631,46.365
				c-11.74,0-24.217-9.719-24.217-29.219c0-15.834,10.166-21.5,8.25-42.166c-1.006-10.834-12.5-20.343-12.5-34.75
				c0-5.922,3.586-13.447,11.553-13.447c7.055,0,10.822,5.953,10.822,12.9c0,6.798-5.381,15.74,1.375,19.047
				c5.242,2.565,13.211-4.77,19.5-6.75c5.191-1.636,12.389,0.225,14.75,8.5c2.531,8.876-3.252,14.745-11.592,16.693
				C192.469-229.687,183.985-228.993,184.573-222.551z M168.588-253.11c0-1.815-1.471-3.287-3.285-3.287s-3.287,1.472-3.287,3.287
				c0,1.814,1.473,3.285,3.287,3.285S168.588-251.295,168.588-253.11z M194.573-243.415c1.285,0,2.328-1.043,2.328-2.33
				c0-1.286-1.043-2.328-2.328-2.328c-1.287,0-2.33,1.042-2.33,2.328C192.243-244.458,193.286-243.415,194.573-243.415z
				 M174.588-183.743c0-1.815-1.471-3.287-3.287-3.287c-1.814,0-3.285,1.472-3.285,3.287c0,1.814,1.471,3.285,3.285,3.285
				C173.118-180.458,174.588-181.928,174.588-183.743z"/>
			<path fill="#C6DD7F" d="M166.907-196.669c-11.76-1.384-19.369,0.346-22.654,3.113c-3.02,2.543-4.955,5.405-2.248,11.932
				c2.939,7.091,1.533,14.732-5.535,15.91c-6.225,1.037-10.895-4.842-11.24-12.278c-0.24-5.183-1.902-8.301-5.533-7.608
				c-3.633,0.691-4.629,5.9-3.633,11.759c1.385,8.128,5.535,11.76,6.227,20.233c0.494,6.055-2.939,13.662-12.451,15.045
				c-9.301,1.354-15.91-4.322-16.602-10.549c-0.732-6.588,3.631-10.895,3.111-17.639c-0.518-6.745-4.012-10.172-5.879-17.294
				c-2.768-10.549,1.211-19.022,7.781-22.654c14.746-8.148,22.832,3.642,35.97,1.556c10.896-1.729,23.348-18.157,33.031-19.541
				c8.227-1.175,13.834,4.669,15.045,14.008S177.557-195.416,166.907-196.669z M124.711-196.151c0-2.292-1.859-4.15-4.15-4.15
				c-2.293,0-4.15,1.858-4.15,4.15s1.857,4.15,4.15,4.15C122.853-192,124.711-193.859,124.711-196.151z M174.17-211.542
				c0-0.955-0.775-1.729-1.73-1.729s-1.729,0.774-1.729,1.729s0.773,1.729,1.729,1.729S174.17-210.586,174.17-211.542z"/>
			<path fill="#C6DD7F" d="M230.202-174.361c0,0.764-0.619,1.384-1.385,1.384c-0.764,0-1.383-0.62-1.383-1.384
				s0.619-1.384,1.383-1.384C229.583-175.745,230.202-175.125,230.202-174.361z"/>
			<path fill="#E9DDB7" d="M235.735-212.752c0,1.242-1.006,2.249-2.248,2.249s-2.25-1.007-2.25-2.249s1.008-2.249,2.25-2.249
				S235.735-213.995,235.735-212.752z"/>
			<path fill="#A6D0E4" d="M152.208-189.58c0,0.668-0.543,1.211-1.211,1.211s-1.211-0.543-1.211-1.211s0.543-1.211,1.211-1.211
				S152.208-190.248,152.208-189.58z"/>
			<path fill="#A6D0E4" d="M148.575-121.097c0,0.764-0.619,1.385-1.383,1.385s-1.383-0.621-1.383-1.385s0.619-1.383,1.383-1.383
				S148.575-121.861,148.575-121.097z"/>
			<path fill="#E9DDB7" d="M233.141-143.06c0,0.668-0.543,1.211-1.211,1.211s-1.209-0.543-1.209-1.211s0.541-1.209,1.209-1.209
				S233.141-143.728,233.141-143.06z"/>
			<path fill="#C6DD7F" d="M195.852-125.134c0,1.881-1.527,3.408-3.408,3.408c-1.883,0-3.408-1.527-3.408-3.408
				c0-1.883,1.525-3.408,3.408-3.408C194.325-128.542,195.852-127.017,195.852-125.134z"/>
			<path fill="#E9DDB7" d="M200.833-85.283c0,1.158-0.939,2.096-2.098,2.096s-2.096-0.938-2.096-2.096s0.938-2.098,2.096-2.098
				S200.833-86.441,200.833-85.283z"/>
			<path fill="#E9DDB7" d="M162.03-91.576c0,0.869-0.703,1.572-1.572,1.572s-1.574-0.703-1.574-1.572s0.705-1.574,1.574-1.574
				S162.03-92.445,162.03-91.576z"/>
			<path fill="#C6DD7F" d="M235.702-205.624c0,1.447-1.174,2.621-2.621,2.621s-2.621-1.174-2.621-2.621s1.174-2.621,2.621-2.621
				S235.702-207.071,235.702-205.624z"/>
			<path fill="#A6D0E4" d="M225.477-170.754c0,1.303-1.057,2.359-2.359,2.359s-2.359-1.057-2.359-2.359s1.057-2.359,2.359-2.359
				S225.477-172.057,225.477-170.754z"/>
			<path fill="#E9DDB7" d="M127.686-164.2c0,1.448-1.174,2.622-2.623,2.622c-1.447,0-2.621-1.174-2.621-2.622
				s1.174-2.622,2.621-2.622C126.512-166.822,127.686-165.648,127.686-164.2z"/>
			<path fill="#A6D0E4" d="M122.704-171.279c0,0.724-0.586,1.311-1.311,1.311c-0.723,0-1.311-0.587-1.311-1.311
				s0.588-1.311,1.311-1.311C122.118-172.589,122.704-172.002,122.704-171.279z"/>
			<path fill="#E9DDB7" d="M186.938-119.367c0,0.869-0.705,1.572-1.574,1.572s-1.572-0.703-1.572-1.572s0.703-1.574,1.572-1.574
				S186.938-120.236,186.938-119.367z"/>
		</g>
		<g>
			<path fill="#A6D0E4" d="M85.033-147.037c-3.191,4.68,1.039,10.721-1.383,15.217c-2.422,4.498-6.744,5.016-9.857,2.596
				c-3.635-2.828-3.41-6.643-8.301-8.82c-5.529-2.465-17.984,2.248-19.715-7.264c-0.875-4.811,2.375-8.566,7.264-9.684
				c6.053-1.383,9.352-0.18,15.391-3.113c6.053-2.939,11.242-8.993,22.137-12.105c10.406-2.975,16.072,1.557,16.602,5.879
				C108.207-155.857,90.043-154.382,85.033-147.037z M82.785-154.474c0-1.24-1.006-2.248-2.248-2.248
				c-1.24,0-2.248,1.008-2.248,2.248c0,1.242,1.008,2.248,2.248,2.248C81.779-152.226,82.785-153.232,82.785-154.474z"/>
			<path fill="#E9DDB7" d="M112-107.857c0,17.166-14.5,25.5-27,22.832c-10.264-2.189-12.834-17.332-16.668-26.166
				c-3.713-8.557-8.832-22.5-20.166-22.5c-11.197,0-12.832,14.5-23.666,14.5c-11,0-24.5-15.666-24.5-39.666
				c0-14.667,9.799-31.455,20.834-30.667c11.666,0.833,4.5,19.667,15.332,19.667c9.5,0,7.857-16.259,9.168-23.334
				c1.666-9,6.832-14.166,18.498-13.166c14.443,1.237,22.334,13.5,18.871,23.344c-4.029,11.451-23.869,17.322-21.537,30.49
				c1.346,7.592,13,11.998,26,16.166C101.695-131.701,112-125.025,112-107.857z M67.049-183.7c0,1.815,1.471,3.286,3.285,3.286
				s3.287-1.471,3.287-3.286s-1.473-3.286-3.287-3.286S67.049-185.515,67.049-183.7z M20.355-158.796c0-0.955-0.773-1.73-1.729-1.73
				s-1.73,0.775-1.73,1.73s0.775,1.729,1.73,1.729S20.355-157.841,20.355-158.796z M37.822-148.076c0-2.102-1.703-3.805-3.805-3.805
				c-2.1,0-3.805,1.703-3.805,3.805s1.705,3.805,3.805,3.805C36.119-144.271,37.822-145.974,37.822-148.076z M57.711-163.639
				c0-0.859-0.697-1.556-1.557-1.556s-1.557,0.696-1.557,1.556s0.697,1.556,1.557,1.556S57.711-162.78,57.711-163.639z
				 M87.354-108.945c0-1.752-1.42-3.174-3.174-3.174c-1.752,0-3.174,1.422-3.174,3.174c0,1.754,1.422,3.174,3.174,3.174
				C85.934-105.771,87.354-107.191,87.354-108.945z"/>
			<path fill="#E9DDB7" d="M109.219-128.091c0-8.41-5.078-15.227-11.34-15.227s-11.34,6.816-11.34,15.227
				c0,8.408,5.078,12.441,11.34,12.441S109.219-119.683,109.219-128.091z"/>
		</g>
	</g>
</pattern>
<g>
	<ellipse fill="#A6D0E4" cx="50.322" cy="50.246" rx="49.678" ry="49.754">
	
	
	</ellipse>
	<pattern  id="SVGID_1_" xlink:href="#Alyssa" patternTransform="matrix(1.764 0 0 1.764 5989.5962 5625.3643)">
	</pattern>
	<ellipse fill="url(#SVGID_1_)" cx="50.322" cy="50.246" rx="49.678" ry="49.754"/>
	
		<ellipse fill="none" stroke="#ED1C24" stroke-miterlimit="1" stroke-dasharray="12" cx="50.322" cy="50.246" rx="49.678" ry="49.754"/>
</g>
<circle fill="none" stroke="#ED1C24" stroke-miterlimit="1" cx="50.322" cy="50.246" r="43.56"/>
<radialGradient id="SVGID_2_" cx="26.5" cy="49" r="11.8585" gradientUnits="userSpaceOnUse">
	<stop  offset="0" style="stop-color:#FFFFFF"/>
	<stop  offset="0.0851" style="stop-color:#FFEDD8"/>
	<stop  offset="0.2082" style="stop-color:#FFD5A7"/>
	<stop  offset="0.3345" style="stop-color:#FFC17D"/>
	<stop  offset="0.462" style="stop-color:#FFB05B"/>
	<stop  offset="0.591" style="stop-color:#FFA340"/>
	<stop  offset="0.7222" style="stop-color:#FF9A2D"/>
	<stop  offset="0.8568" style="stop-color:#FF9522"/>
	<stop  offset="1" style="stop-color:#FF931E"/>
</radialGradient>
<path fill="url(#SVGID_2_)" stroke="#ED1C24" stroke-miterlimit="1" d="M29.5,62.5c0,1.657-1.343,3-3,3l0,0c-1.657,0-3-1.343-3-3
	v-27c0-1.657,1.343-3,3-3l0,0c1.657,0,3,1.343,3,3V62.5z"/>
<radialGradient id="SVGID_3_" cx="51.5" cy="48" r="11.8585" gradientUnits="userSpaceOnUse">
	<stop  offset="0" style="stop-color:#FFFFFF"/>
	<stop  offset="0.0851" style="stop-color:#FFEDD8"/>
	<stop  offset="0.2082" style="stop-color:#FFD5A7"/>
	<stop  offset="0.3345" style="stop-color:#FFC17D"/>
	<stop  offset="0.462" style="stop-color:#FFB05B"/>
	<stop  offset="0.591" style="stop-color:#FFA340"/>
	<stop  offset="0.7222" style="stop-color:#FF9A2D"/>
	<stop  offset="0.8568" style="stop-color:#FF9522"/>
	<stop  offset="1" style="stop-color:#FF931E"/>
</radialGradient>
<path fill="url(#SVGID_3_)" stroke="#ED1C24" stroke-miterlimit="1" d="M54.5,61.5c0,1.657-1.344,3-3,3l0,0c-1.657,0-3-1.343-3-3
	v-27c0-1.657,1.343-3,3-3l0,0c1.656,0,3,1.343,3,3V61.5z"/>
<radialGradient id="SVGID_4_" cx="38.5" cy="48" r="11.8585" gradientUnits="userSpaceOnUse">
	<stop  offset="0" style="stop-color:#FFFFFF"/>
	<stop  offset="0.0851" style="stop-color:#FFEDD8"/>
	<stop  offset="0.2082" style="stop-color:#FFD5A7"/>
	<stop  offset="0.3345" style="stop-color:#FFC17D"/>
	<stop  offset="0.462" style="stop-color:#FFB05B"/>
	<stop  offset="0.591" style="stop-color:#FFA340"/>
	<stop  offset="0.7222" style="stop-color:#FF9A2D"/>
	<stop  offset="0.8568" style="stop-color:#FF9522"/>
	<stop  offset="1" style="stop-color:#FF931E"/>
</radialGradient>
<path fill="url(#SVGID_4_)" stroke="#ED1C24" stroke-miterlimit="1" d="M41.5,61.5c0,1.657-1.344,3-3,3l0,0c-1.657,0-3-1.343-3-3
	v-27c0-1.657,1.343-3,3-3l0,0c1.656,0,3,1.343,3,3V61.5z"/>
<radialGradient id="SVGID_5_" cx="76.5" cy="49" r="11.8585" gradientUnits="userSpaceOnUse">
	<stop  offset="0" style="stop-color:#FFFFFF"/>
	<stop  offset="0.0851" style="stop-color:#FFEDD8"/>
	<stop  offset="0.2082" style="stop-color:#FFD5A7"/>
	<stop  offset="0.3345" style="stop-color:#FFC17D"/>
	<stop  offset="0.462" style="stop-color:#FFB05B"/>
	<stop  offset="0.591" style="stop-color:#FFA340"/>
	<stop  offset="0.7222" style="stop-color:#FF9A2D"/>
	<stop  offset="0.8568" style="stop-color:#FF9522"/>
	<stop  offset="1" style="stop-color:#FF931E"/>
</radialGradient>
<path fill="url(#SVGID_5_)" stroke="#ED1C24" stroke-miterlimit="1" d="M79.5,62.5c0,1.657-1.344,3-3,3l0,0c-1.656,0-3-1.343-3-3
	v-27c0-1.657,1.344-3,3-3l0,0c1.656,0,3,1.343,3,3V62.5z"/>
<radialGradient id="SVGID_6_" cx="63.5" cy="48" r="11.8585" gradientUnits="userSpaceOnUse">
	<stop  offset="0" style="stop-color:#FFFFFF"/>
	<stop  offset="0.0851" style="stop-color:#FFEDD8"/>
	<stop  offset="0.2082" style="stop-color:#FFD5A7"/>
	<stop  offset="0.3345" style="stop-color:#FFC17D"/>
	<stop  offset="0.462" style="stop-color:#FFB05B"/>
	<stop  offset="0.591" style="stop-color:#FFA340"/>
	<stop  offset="0.7222" style="stop-color:#FF9A2D"/>
	<stop  offset="0.8568" style="stop-color:#FF9522"/>
	<stop  offset="1" style="stop-color:#FF931E"/>
</radialGradient>
<path fill="url(#SVGID_6_)" stroke="#ED1C24" stroke-miterlimit="1" d="M66.5,61.5c0,1.657-1.344,3-3,3l0,0c-1.656,0-3-1.343-3-3
	v-27c0-1.657,1.344-3,3-3l0,0c1.656,0,3,1.343,3,3V61.5z"/>
</svg>
